<svg xmlns="http://www.w3.org/2000/svg" xmlns:xlink="http://www.w3.org/1999/xlink" width="512.001" height="2936" viewBox="0 0 512.001 2936"><svg width="24" height="23" id="add" y="0"><path fill-rule="evenodd" fill="#FFF" d="M11.995 5.74c.553 0 1 .429 1 .959v3.834h4c.553 0 1 .428 1 .958s-.447.959-1 .959h-4v3.833c0 .53-.447.959-1 .959-.553 0-1-.429-1-.959V12.45H6.994c-.552 0-1-.429-1-.959s.448-.958 1-.958h4.001V6.699c0-.53.447-.959 1-.959zm11.925 7.062c-.588 5.082-4.659 9.208-9.9 10.032-.683.106-1.365.16-2.039.16-3.179 0-6.187-1.18-8.472-3.37C.739 16.97-.481 13.298.161 9.55 1.005 4.616 5.22.725 10.413.087c4.139-.505 8.184 1.014 10.827 4.071a.931.931 0 0 1-.133 1.349 1.03 1.03 0 0 1-1.408-.127c-2.202-2.548-5.573-3.82-9.032-3.391-4.322.531-7.831 3.767-8.532 7.872-.537 3.131.48 6.195 2.788 8.408 2.309 2.211 5.507 3.185 8.773 2.673 4.291-.675 7.754-4.187 8.235-8.352a9.363 9.363 0 0 0-.1-2.843 9.302 9.302 0 0 0-.274-1.072c-.162-.507.135-1.042.663-1.197.529-.159 1.087.129 1.249.635a11.098 11.098 0 0 1 .451 4.689z"></path></svg><svg width="24" height="23" id="add-header" y="23"><path fill-rule="evenodd" fill="#25282a" d="M11.995 5.74c.553 0 1 .429 1 .959v3.834h4c.553 0 1 .428 1 .958s-.447.959-1 .959h-4v3.833c0 .53-.447.959-1 .959-.553 0-1-.429-1-.959V12.45H6.994c-.552 0-1-.429-1-.959s.448-.958 1-.958h4.001V6.699c0-.53.447-.959 1-.959zm11.925 7.062c-.588 5.082-4.659 9.208-9.9 10.032-.683.106-1.365.16-2.039.16-3.179 0-6.187-1.18-8.472-3.37C.739 16.97-.481 13.298.161 9.55 1.005 4.616 5.22.725 10.413.087c4.139-.505 8.184 1.014 10.827 4.071a.931.931 0 0 1-.133 1.349 1.03 1.03 0 0 1-1.408-.127c-2.202-2.548-5.573-3.82-9.032-3.391-4.322.531-7.831 3.767-8.532 7.872-.537 3.131.48 6.195 2.788 8.408 2.309 2.211 5.507 3.185 8.773 2.673 4.291-.675 7.754-4.187 8.235-8.352a9.363 9.363 0 0 0-.1-2.843 9.302 9.302 0 0 0-.274-1.072c-.162-.507.135-1.042.663-1.197.529-.159 1.087.129 1.249.635a11.098 11.098 0 0 1 .451 4.689z"></path></svg><svg width="17" height="13" id="burger" y="46"><path fill-rule="evenodd" fill="#FCFCFC" d="M16 7.25H1a.75.75 0 0 1 0-1.5h15a.75.75 0 0 1 0 1.5zm0-5H1a.75.75 0 0 1 0-1.5h15a.75.75 0 0 1 0 1.5zm-15 8.5h15a.75.75 0 0 1 0 1.5H1a.75.75 0 0 1 0-1.5z"></path></svg><svg width="24" height="24" viewBox="0 0 24 24" fill="none" stroke="currentColor" stroke-width="2" stroke-linecap="round" stroke-linejoin="round" class="feather feather-check-circle" color="#fff" id="checkcircle" y="59"><path d="M22 11.08V12a10 10 0 1 1-5.93-9.14"></path><path d="M22 4L12 14.01l-3-3"></path></svg><svg viewBox="0 0 512.001 512.001" width="512.001" height="512.001" id="chrome" y="83"><path d="M255.333.048s150.936-6.78 230.932 144.636H242.501s-46.036-1.512-85.28 54.244c-11.32 23.352-23.392 47.46-9.808 94.916C127.793 260.704 43.265 113.8 43.265 113.8S102.889 6.072 255.333.048z" fill="#e16b5a"></path><path d="M255.333.048c-2.604.104-5.116.308-7.668.468 40.752 2.968 150.852 22.468 215.148 144.168h23.444C406.265-6.736 255.333.048 255.333.048z" fill="#cc6152"></path><path d="M478.409 384.488s-69.6 133.852-240.968 127.268c21.14-36.524 121.912-210.704 121.912-210.704s24.328-39.044-4.4-100.844c-14.604-21.464-58.844-43.96-106.812-55.952 38.576-.384 237.644.024 237.644.024s63.632 105.42-7.376 240.208z" fill="#ffd464"></path><path d="M485.781 144.284s-101.54-.208-173.636-.184c69.164.016 152.012.184 152.012.184s63.636 105.416-7.372 240.204c0 0-63.776 122.416-219.348 127.268 171.368 6.584 240.972-127.268 240.972-127.268 71.008-134.788 7.372-240.204 7.372-240.204z" fill="#f2c95f"></path><path d="M33.333 385.504S-47.991 258.4 43.413 113.552l121.84 210.752s21.696 40.552 89.684 46.616c25.916-1.888 52.876-3.492 87.264-38.952-18.96 33.532-104.172 180.028-104.172 180.028s-123.272 2.296-204.696-126.492z" fill="#74b340"></path><circle cx="254.721" cy="258.08" r="116" fill="#fff"></circle><circle cx="254.681" cy="258.08" r="92" fill="#2995cc"></circle><path d="M254.705 166.1c-1.832 0-3.644.068-5.444.172 48.272 2.82 86.552 42.848 86.552 91.824 0 48.984-38.28 89.016-86.552 91.836 1.804.1 3.616.172 5.444.172 50.804 0 92-41.196 92-92.008 0-50.804-41.196-91.996-92-91.996z" fill="#268cbf"></path></svg><svg width="11" height="11" id="close" y="596"><path fill-rule="evenodd" fill="#FCFCFC" d="M6.235 5.5l3.973-4.054a.47.47 0 1 0-.67-.657L5.572 4.836 1.441.782a.47.47 0 0 0-.658.671L4.908 5.5.783 9.547a.471.471 0 0 0 .329.805.465.465 0 0 0 .329-.134l4.131-4.054 3.966 4.047a.468.468 0 1 0 .67-.657L6.235 5.5z"></path></svg><svg width="25" height="25" id="contacts" y="607"><path fill-rule="evenodd" fill="#e5d5ca" d="M24.464.507a1.787 1.787 0 0 0-1.976-.352L1.05 9.739a1.788 1.788 0 0 0 .303 3.365l8.532 2.099 2.68 8.545a1.787 1.787 0 0 0 3.353.154l8.948-21.428a1.786 1.786 0 0 0-.402-1.967zM14.27 23.214l-2.981-9.505L1.78 11.37l21.437-9.584-8.947 21.428z"></path></svg><svg width="25" height="25" id="contacts-hover" y="632"><path fill-rule="evenodd" fill="#37997f" d="M24.464.507a1.787 1.787 0 0 0-1.976-.352L1.05 9.739a1.788 1.788 0 0 0 .303 3.365l8.532 2.099 2.68 8.545a1.787 1.787 0 0 0 3.353.154l8.948-21.428a1.786 1.786 0 0 0-.402-1.967zM14.27 23.214l-2.981-9.505L1.78 11.37l21.437-9.584-8.947 21.428z"></path></svg><svg width="31" height="21" id="discord" y="657"><path fill-rule="evenodd" fill="#544c4c" d="M29.994 17.147s-1.03 1.771-2.869 2.697C25.144 20.842 22.343 21 22.343 21l-1.721-2.312s1.233-.283 2.295-.963c1.042-.668 1.913-1.734 1.913-1.734s-2.327 1.445-4.782 2.119c-2.297.631-4.705.587-5.009.579-.305.008-2.726.052-5.035-.579-2.468-.674-4.807-2.119-4.807-2.119s.876 1.066 1.923 1.734c1.067.68 2.307.963 2.307.963L7.697 21s-2.816-.158-4.807-1.156C1.041 18.918.006 17.147.006 17.147s-.127-3.584.769-7.129c.93-3.678 2.884-7.321 2.884-7.321S5.308 1.44 7.12.771C8.961.091 10.965 0 10.965 0l.385.578s-1.913.279-3.461.963c-1.712.757-3.076 1.927-3.076 1.927S7.061 2.31 9.619 1.734c2.355-.531 4.963-.574 5.387-.578h.066c.423.004 3.016.047 5.358.578 2.545.576 4.782 1.734 4.782 1.734s-1.357-1.17-3.06-1.927c-1.54-.684-3.443-.963-3.443-.963L19.091 0s1.995.091 3.826.771c1.803.669 3.443 1.926 3.443 1.926s1.944 3.643 2.869 7.321c.891 3.545.765 7.129.765 7.129zM10.292 9.248c-1.433 0-2.595 1.207-2.595 2.697 0 1.489 1.162 2.697 2.595 2.697 1.434 0 2.596-1.208 2.596-2.697 0-1.49-1.162-2.697-2.596-2.697zm9.469 0c-1.426 0-2.582 1.207-2.582 2.697 0 1.489 1.156 2.697 2.582 2.697s2.582-1.208 2.582-2.697c0-1.49-1.156-2.697-2.582-2.697z"></path></svg><svg width="25" height="22" id="donate" y="678"><path fill-rule="evenodd" fill="#fe9e3e" d="M23.295 11.314h-.005c-.424 2.719-1.698 9.303-1.698 9.303-.152.8-.858 1.38-1.681 1.38H5.089c-.823 0-1.529-.58-1.681-1.38 0 0-1.275-7.071-1.698-9.303h-.006A1.708 1.708 0 0 1 0 9.603V7.442c0-1.014.763-1.789 1.704-1.789h1.08c.009-.011.012-.025.022-.036L8.436.238a.85.85 0 0 1 1.205 0 .858.858 0 0 1 0 1.21L5.182 5.653h14.636l-4.459-4.205a.858.858 0 0 1 0-1.21.85.85 0 0 1 1.205 0l5.629 5.379c.011.011.014.025.023.036h1.079c.942 0 1.705.775 1.705 1.789v2.161c0 .945-.763 1.711-1.705 1.711zM5.089 20.305h14.822l1.68-9.032H3.409l1.68 9.032zM23.295 7.322H1.704v2.281h21.591V7.322zM16.761 19.05a.855.855 0 0 1-.852-.856V14.2c0-.473.382-.856.852-.856.471 0 .853.383.853.856v3.994a.855.855 0 0 1-.853.856zm-2.841 0a.855.855 0 0 1-.852-.856V14.2c0-.473.382-.856.852-.856.471 0 .853.383.853.856v3.994a.855.855 0 0 1-.853.856zm-2.841 0a.855.855 0 0 1-.852-.856V14.2c0-.473.382-.856.852-.856.471 0 .853.383.853.856v3.994a.855.855 0 0 1-.853.856zm-2.84 0a.855.855 0 0 1-.853-.856V14.2c0-.473.382-.856.853-.856.47 0 .852.383.852.856v3.994a.855.855 0 0 1-.852.856z"></path></svg><svg width="25" height="22" id="donate-hover" y="700"><path fill-rule="evenodd" fill="#ff7f00" d="M23.295 11.314h-.005c-.424 2.719-1.698 9.303-1.698 9.303-.152.8-.858 1.38-1.681 1.38H5.089c-.823 0-1.529-.58-1.681-1.38 0 0-1.275-7.071-1.698-9.303h-.006A1.708 1.708 0 0 1 0 9.603V7.442c0-1.014.763-1.789 1.704-1.789h1.08c.009-.011.012-.025.022-.036L8.436.238a.85.85 0 0 1 1.205 0 .858.858 0 0 1 0 1.21L5.182 5.653h14.636l-4.459-4.205a.858.858 0 0 1 0-1.21.85.85 0 0 1 1.205 0l5.629 5.379c.011.011.014.025.023.036h1.079c.942 0 1.705.775 1.705 1.789v2.161c0 .945-.763 1.711-1.705 1.711zM5.089 20.305h14.822l1.68-9.032H3.409l1.68 9.032zM23.295 7.322H1.704v2.281h21.591V7.322zM16.761 19.05a.855.855 0 0 1-.852-.856V14.2c0-.473.382-.856.852-.856.471 0 .853.383.853.856v3.994a.855.855 0 0 1-.853.856zm-2.841 0a.855.855 0 0 1-.852-.856V14.2c0-.473.382-.856.852-.856.471 0 .853.383.853.856v3.994a.855.855 0 0 1-.853.856zm-2.841 0a.855.855 0 0 1-.852-.856V14.2c0-.473.382-.856.852-.856.471 0 .853.383.853.856v3.994a.855.855 0 0 1-.853.856zm-2.84 0a.855.855 0 0 1-.853-.856V14.2c0-.473.382-.856.853-.856.47 0 .852.383.852.856v3.994a.855.855 0 0 1-.852.856z"></path></svg><svg width="23" height="25" id="download" y="722"><path fill-rule="evenodd" fill="#FFF" d="M15.454 17.379h-1v-1.513h1s6 0 6-4.034c0-3.228-2.56-3.55-3.584-3.55-.255 0-.416.02-.416.02s-.5-6.051-5.5-6.051-5 4.034-5 4.034-4.5.504-4.5 4.538c0 5.043 6 5.043 6 5.043h.5v1.513h-.5c-.184 0-1.849-.021-3.576-.747-2.53-1.063-3.924-3.126-3.924-5.809 0-3.544 2.64-5.216 4.689-5.808a5.773 5.773 0 0 1 .665-1.549C7.079 2.221 8.684.738 11.954.738c4.258 0 6.159 3.463 6.777 6.091 2.106.295 4.223 1.717 4.223 5.003 0 4.388-4.905 5.547-7.5 5.547zm-7.031 2.024a.68.68 0 0 1 .52.244l2.011 2.265V10.956c0-.417.336-.756.751-.756.414 0 .749.339.749.756v10.63l2.028-2.019c.289-.299.827-.303 1.123-.01a.76.76 0 0 1 .009 1.069l-3.25 3.341a.743.743 0 0 1-.728.193.742.742 0 0 1-.737-.209l-3.004-3.278a.762.762 0 0 1 .035-1.069.708.708 0 0 1 .493-.201z"></path></svg><svg id="edge" viewBox="0 0 256 256" width="256" height="256" y="747"><defs><style>.cls-1{fill:url(#linear-gradient)}.cls-2{opacity:.35;fill:url(#radial-gradient)}.cls-2,.cls-4{isolation:isolate}.cls-3{fill:url(#linear-gradient-2)}.cls-4{opacity:.41;fill:url(#radial-gradient-2)}.cls-5{fill:url(#radial-gradient-3)}.cls-6{fill:url(#radial-gradient-4)}</style><linearGradient id="linear-gradient" x1="63.33" y1="84.03" x2="241.67" y2="84.03" gradientTransform="matrix(1 0 0 -1 0 266)" gradientUnits="userSpaceOnUse"><stop offset="0" stop-color="#0c59a4"></stop><stop offset="1" stop-color="#114a8b"></stop></linearGradient><radialGradient id="radial-gradient" cx="161.83" cy="68.91" r="95.38" gradientTransform="matrix(1 0 0 -.95 0 248.84)" gradientUnits="userSpaceOnUse"><stop offset=".72" stop-opacity="0"></stop><stop offset=".95" stop-opacity=".53"></stop><stop offset="1"></stop></radialGradient><linearGradient id="linear-gradient-2" x1="157.35" y1="161.39" x2="45.96" y2="40.06" gradientTransform="matrix(1 0 0 -1 0 266)" gradientUnits="userSpaceOnUse"><stop offset="0" stop-color="#1b9de2"></stop><stop offset=".16" stop-color="#1595df"></stop><stop offset=".67" stop-color="#0680d7"></stop><stop offset="1" stop-color="#0078d4"></stop></linearGradient><radialGradient id="radial-gradient-2" cx="-340.29" cy="62.99" r="143.24" gradientTransform="matrix(.15 -.99 -.8 -.12 176.64 -125.4)" gradientUnits="userSpaceOnUse"><stop offset=".76" stop-opacity="0"></stop><stop offset=".95" stop-opacity=".5"></stop><stop offset="1"></stop></radialGradient><radialGradient id="radial-gradient-3" cx="113.37" cy="570.21" r="202.43" gradientTransform="matrix(-.04 1 2.13 .08 -1179.54 -106.69)" gradientUnits="userSpaceOnUse"><stop offset="0" stop-color="#35c1f1"></stop><stop offset=".11" stop-color="#34c1ed"></stop><stop offset=".23" stop-color="#2fc2df"></stop><stop offset=".31" stop-color="#2bc3d2"></stop><stop offset=".67" stop-color="#36c752"></stop></radialGradient><radialGradient id="radial-gradient-4" cx="376.52" cy="567.97" r="97.34" gradientTransform="matrix(.28 .96 .78 -.23 -303.76 -148.5)" gradientUnits="userSpaceOnUse"><stop offset="0" stop-color="#66eb6e"></stop><stop offset="1" stop-color="#66eb6e" stop-opacity="0"></stop></radialGradient></defs><title>Edge_Logo_265x265</title><path class="cls-1" d="M235.68 195.46a93.73 93.73 0 0 1-10.54 4.71 101.87 101.87 0 0 1-35.9 6.46c-47.32 0-88.54-32.55-88.54-74.32A31.48 31.48 0 0 1 117.13 105c-42.8 1.8-53.8 46.4-53.8 72.53 0 73.88 68.09 81.37 82.76 81.37 7.91 0 19.84-2.3 27-4.56l1.31-.44a128.34 128.34 0 0 0 66.6-52.8 4 4 0 0 0-5.32-5.64z" transform="translate(-4.63 -4.92)"></path><path class="cls-2" d="M235.68 195.46a93.73 93.73 0 0 1-10.54 4.71 101.87 101.87 0 0 1-35.9 6.46c-47.32 0-88.54-32.55-88.54-74.32A31.48 31.48 0 0 1 117.13 105c-42.8 1.8-53.8 46.4-53.8 72.53 0 73.88 68.09 81.37 82.76 81.37 7.91 0 19.84-2.3 27-4.56l1.31-.44a128.34 128.34 0 0 0 66.6-52.8 4 4 0 0 0-5.32-5.64z" transform="translate(-4.63 -4.92)"></path><path class="cls-3" d="M110.34 246.34A79.2 79.2 0 0 1 87.6 225a80.72 80.72 0 0 1 29.53-120c3.12-1.47 8.45-4.13 15.54-4a32.35 32.35 0 0 1 25.69 13 31.88 31.88 0 0 1 6.36 18.66c0-.21 24.46-79.6-80-79.6-43.9 0-80 41.66-80 78.21a130.15 130.15 0 0 0 12.11 56 128 128 0 0 0 156.38 67.11 75.55 75.55 0 0 1-62.78-8z" transform="translate(-4.63 -4.92)"></path><path class="cls-4" d="M110.34 246.34A79.2 79.2 0 0 1 87.6 225a80.72 80.72 0 0 1 29.53-120c3.12-1.47 8.45-4.13 15.54-4a32.35 32.35 0 0 1 25.69 13 31.88 31.88 0 0 1 6.36 18.66c0-.21 24.46-79.6-80-79.6-43.9 0-80 41.66-80 78.21a130.15 130.15 0 0 0 12.11 56 128 128 0 0 0 156.38 67.11 75.55 75.55 0 0 1-62.78-8z" transform="translate(-4.63 -4.92)"></path><path class="cls-5" d="M156.94 153.78c-.81 1.05-3.3 2.5-3.3 5.66 0 2.61 1.7 5.12 4.72 7.23 14.38 10 41.49 8.68 41.56 8.68a59.56 59.56 0 0 0 30.27-8.35 61.38 61.38 0 0 0 30.43-52.88c.26-22.41-8-37.31-11.34-43.91-21.19-41.45-66.93-65.29-116.67-65.29a128 128 0 0 0-128 126.2c.48-36.54 36.8-66.05 80-66.05 3.5 0 23.46.34 42 10.07 16.34 8.58 24.9 18.94 30.85 29.21 6.18 10.67 7.28 24.15 7.28 29.52s-2.74 13.33-7.8 19.91z" transform="translate(-4.63 -4.92)"></path><path class="cls-6" d="M156.94 153.78c-.81 1.05-3.3 2.5-3.3 5.66 0 2.61 1.7 5.12 4.72 7.23 14.38 10 41.49 8.68 41.56 8.68a59.56 59.56 0 0 0 30.27-8.35 61.38 61.38 0 0 0 30.43-52.88c.26-22.41-8-37.31-11.34-43.91-21.19-41.45-66.93-65.29-116.67-65.29a128 128 0 0 0-128 126.2c.48-36.54 36.8-66.05 80-66.05 3.5 0 23.46.34 42 10.07 16.34 8.58 24.9 18.94 30.85 29.21 6.18 10.67 7.28 24.15 7.28 29.52s-2.74 13.33-7.8 19.91z" transform="translate(-4.63 -4.92)"></path></svg><svg width="16" height="16" id="exit" y="1003"><path fill-rule="evenodd" fill="#FCFCFC" d="M15.49 8.454l-3.878 3.825a.637.637 0 0 1-.896-.908l2.772-2.734H6.061a.637.637 0 1 1 0-1.275h7.427l-2.772-2.733a.637.637 0 1 1 .896-.908l3.878 3.825a.637.637 0 0 1 0 .908zM7.974 1.625h-5.74a.638.638 0 0 0-.638.637v11.475c0 .352.285.638.638.638h5.74a.637.637 0 1 1 0 1.275h-5.74A1.916 1.916 0 0 1 .32 13.737V2.262C.32 1.208 1.179.35 2.234.35h5.74a.637.637 0 1 1 0 1.275z"></path></svg><svg width="23" height="26" id="file" y="1019"><path fill-rule="evenodd" fill="#FFF" d="M21.683 5.425s-9.153 9.474-9.74 9.621l-1.68.42a1.68 1.68 0 0 1-2.038-2.037l.42-1.68c.141-.565 9.474-9.888 9.474-9.888a1.675 1.675 0 0 1 1.188-.492c.43 0 .86.164 1.188.492l1.188 1.188a1.68 1.68 0 0 1 0 2.376zm-2.376-2.376l-7.885 7.885c.013.013.028.021.041.034l1.15 1.15 7.882-7.881-1.188-1.188zM2.015 23.916h16.8v-10.64h1.68v10.64a1.68 1.68 0 0 1-1.68 1.68h-16.8a1.68 1.68 0 0 1-1.68-1.68V2.636c0-.928.752-1.68 1.68-1.68h9.52v1.68h-9.52v21.28z"></path></svg><svg width="25" height="20" id="forum" y="1045"><path fill-rule="evenodd" fill="#E5D5CA" d="M24.967 7.107v8.451c0 1.052-.563 2.111-1.811 2.111h-.155l.587 2.338-4.044-2.338H9.805c-1.248 0-2.464-1.06-2.464-2.111v-.364h12.993c1.413 0 2.116-1.074 2.116-2.264V5.295h1.539c1.247 0 .978.762.978 1.812zm-6.696 6.908H7.355l-5.51 3.187.86-3.21C1.383 13.87.006 13.079.006 11.984v-9.57c0-1.189 1.626-2.423 3.039-2.423h15.226c1.412 0 2.716 1.234 2.716 2.423v9.57c0 1.189-1.304 2.031-2.716 2.031zM4.662 5.216c-.801 0-1.451.638-1.451 1.426 0 .788.65 1.426 1.451 1.426.8 0 1.451-.638 1.451-1.426 0-.788-.651-1.426-1.451-1.426zm5.418 0c-.801 0-1.45.638-1.45 1.426 0 .788.649 1.426 1.45 1.426.801 0 1.451-.638 1.451-1.426 0-.788-.65-1.426-1.451-1.426zm5.419 0c-.801 0-1.451.638-1.451 1.426 0 .788.65 1.426 1.451 1.426.8 0 1.451-.638 1.451-1.426 0-.788-.651-1.426-1.451-1.426z"></path></svg><svg width="25" height="20" id="forum-hover" y="1065"><path fill-rule="evenodd" fill="#37997f" d="M24.967 7.107v8.451c0 1.052-.563 2.111-1.811 2.111h-.155l.587 2.338-4.044-2.338H9.805c-1.248 0-2.464-1.06-2.464-2.111v-.364h12.993c1.413 0 2.116-1.074 2.116-2.264V5.295h1.539c1.247 0 .978.762.978 1.812zm-6.696 6.908H7.355l-5.51 3.187.86-3.21C1.383 13.87.006 13.079.006 11.984v-9.57c0-1.189 1.626-2.423 3.039-2.423h15.226c1.412 0 2.716 1.234 2.716 2.423v9.57c0 1.189-1.304 2.031-2.716 2.031zM4.662 5.216c-.801 0-1.451.638-1.451 1.426 0 .788.65 1.426 1.451 1.426.8 0 1.451-.638 1.451-1.426 0-.788-.651-1.426-1.451-1.426zm5.418 0c-.801 0-1.45.638-1.45 1.426 0 .788.649 1.426 1.45 1.426.801 0 1.451-.638 1.451-1.426 0-.788-.65-1.426-1.451-1.426zm5.419 0c-.801 0-1.451.638-1.451 1.426 0 .788.65 1.426 1.451 1.426.8 0 1.451-.638 1.451-1.426 0-.788-.651-1.426-1.451-1.426z"></path></svg><svg width="21" height="18" id="heart" y="1085"><path fill-rule="evenodd" fill="#FFF" d="M10.5 17.999c-.477 0-.921-.188-1.253-.529L1.113 9.069a5.747 5.747 0 0 1-.975-4.656C.608 2.281 2.362.557 4.504.125 6.876-.355 9.227.641 10.5 2.66 11.772.641 14.126-.355 16.495.125a5.48 5.48 0 0 1 1.526.553.875.875 0 0 1-.831 1.54 3.782 3.782 0 0 0-1.042-.379c-1.644-.33-3.286.354-4.169 1.754-.327.518-.88.826-1.479.826-.6 0-1.153-.308-1.48-.826-.883-1.4-2.523-2.084-4.168-1.754a3.908 3.908 0 0 0-3.004 2.95c-.253 1.154-.023 2.294.65 3.211l.237.289 7.765 7.96 8.027-8.282c.648-.885.878-2.025.624-3.178a3.859 3.859 0 0 0-.111-.399.875.875 0 1 1 1.658-.558 5.6 5.6 0 0 1 .163.581c.358 1.628.012 3.312-.948 4.622l-.288.357-7.873 8.078c-.33.34-.775.528-1.251.529H10.5z"></path></svg><svg width="22" height="16" id="help" y="1103"><path fill-rule="evenodd" fill="#FFF" d="M13.879 16h-6.7c-.176 0-1.771-.02-3.424-.709C1.334 14.282 0 12.324 0 9.778c0-3.364 2.526-4.95 4.488-5.512.118-.44.313-.955.636-1.471C5.862 1.614 7.399.206 10.529.206c4.075 0 5.895 3.287 6.487 5.781 2.015.28 4.042 1.63 4.042 4.748 0 4.165-4.696 5.265-7.179 5.265zm2.313-8.634c-.245 0-.398.019-.398.019s-.479-5.743-5.265-5.743-4.786 3.829-4.786 3.829-4.307.478-4.307 4.307c0 4.786 5.743 4.786 5.743 4.786h6.7s5.744 0 5.744-3.829c0-3.063-2.451-3.369-3.431-3.369zm-4.225.537a8.095 8.095 0 0 1-.55.411 2.332 2.332 0 0 0-.467.411.723.723 0 0 0-.189.477c0 .193.067.349.2.467l-1.21.355a1.39 1.39 0 0 1-.367-.977c0-.296.085-.563.255-.8.171-.237.356-.414.556-.533.2-.118.385-.259.555-.422.171-.163.256-.326.256-.489a.56.56 0 0 0-.217-.455c-.144-.119-.361-.178-.65-.178-.526 0-.981.23-1.366.689l-.9-1.011c.615-.718 1.426-1.078 2.433-1.078.711 0 1.274.161 1.688.484.415.322.622.746.622 1.271 0 .297-.063.563-.188.8-.126.237-.28.43-.461.578zm-1.683 2.71c.244 0 .455.089.633.267a.864.864 0 0 1 .266.633.864.864 0 0 1-.266.633.865.865 0 0 1-.633.267.862.862 0 0 1-.633-.267.865.865 0 0 1-.267-.633c0-.244.089-.455.267-.633a.862.862 0 0 1 .633-.267z"></path></svg><svg width="25" height="24" id="home" y="1119"><path fill-rule="evenodd" fill="#e5d5ca" d="M24.393 9.783L13.605.417a1.688 1.688 0 0 0-2.22 0L.598 9.783a1.782 1.782 0 0 0-.501 1.944 1.72 1.72 0 0 0 1.532 1.149v9.361c0 .969.768 1.763 1.716 1.763h18.301c.947 0 1.715-.794 1.715-1.763v-9.361a1.72 1.72 0 0 0 1.533-1.149 1.782 1.782 0 0 0-.501-1.944zm-12.47 12.461H10.78v-5.269h3.431v5.269h-2.288zm9.723-11.122v11.122h-5.719v-5.269c0-.969-.768-1.755-1.716-1.755H10.78c-.948 0-1.716.786-1.716 1.755v5.269H3.345V11.122H1.708l10.787-9.366 10.788 9.366h-1.637z"></path></svg><svg width="25" height="24" id="home-hover" y="1143"><path fill-rule="evenodd" fill="#37997f" d="M24.393 9.783L13.605.417a1.688 1.688 0 0 0-2.22 0L.598 9.783a1.782 1.782 0 0 0-.501 1.944 1.72 1.72 0 0 0 1.532 1.149v9.361c0 .969.768 1.763 1.716 1.763h18.301c.947 0 1.715-.794 1.715-1.763v-9.361a1.72 1.72 0 0 0 1.533-1.149 1.782 1.782 0 0 0-.501-1.944zm-12.47 12.461H10.78v-5.269h3.431v5.269h-2.288zm9.723-11.122v11.122h-5.719v-5.269c0-.969-.768-1.755-1.716-1.755H10.78c-.948 0-1.716.786-1.716 1.755v5.269H3.345V11.122H1.708l10.787-9.366 10.788 9.366h-1.637z"></path></svg><svg width="25" height="24" id="home-tab" y="1167"><path fill-rule="evenodd" fill="#FFF" d="M24.393 9.783L13.605.417a1.688 1.688 0 0 0-2.22 0L.598 9.783a1.782 1.782 0 0 0-.501 1.944 1.72 1.72 0 0 0 1.532 1.149v9.36c0 .97.768 1.764 1.716 1.764h18.301c.947 0 1.715-.794 1.715-1.764v-9.36a1.72 1.72 0 0 0 1.533-1.149 1.782 1.782 0 0 0-.501-1.944zm-12.47 12.461H10.78v-5.269h3.431v5.269h-2.288zm9.723-11.122v11.122h-5.719v-5.269c0-.969-.768-1.756-1.716-1.756H10.78c-.948 0-1.716.787-1.716 1.756v5.269H3.345V11.122H1.707l10.788-9.366 10.788 9.366h-1.637z"></path></svg><svg width="25" height="25" id="info" y="1191"><path fill-rule="evenodd" fill="#e5d5ca" d="M23.077 25h-7.051a1.922 1.922 0 0 1-1.923-1.923v-7.051c0-1.063.86-1.924 1.923-1.924h7.051c1.062 0 1.923.861 1.923 1.924v7.051A1.923 1.923 0 0 1 23.077 25zm0-8.974h-7.051v7.051h7.051v-7.051zm0-5.129h-7.051a1.922 1.922 0 0 1-1.923-1.923V1.923c0-1.062.86-1.923 1.923-1.923h7.051C24.139 0 25 .861 25 1.923v7.051a1.923 1.923 0 0 1-1.923 1.923zm0-8.974h-7.051v7.051h7.051V1.923zM8.974 25H1.923A1.923 1.923 0 0 1 0 23.077v-7.051c0-1.063.861-1.924 1.923-1.924h7.051c1.063 0 1.923.861 1.923 1.924v7.051c0 1.062-.86 1.923-1.923 1.923zm0-8.974H1.923v7.051h7.051v-7.051zm0-5.129H1.923A1.923 1.923 0 0 1 0 8.974V1.923C0 .861.861 0 1.923 0h7.051c1.063 0 1.923.861 1.923 1.923v7.051c0 1.062-.86 1.923-1.923 1.923zm0-8.974H1.923v7.051h7.051V1.923z"></path></svg><svg width="25" height="25" id="info-hover" y="1216"><path fill-rule="evenodd" fill="#37997f" d="M23.077 25h-7.051a1.922 1.922 0 0 1-1.923-1.923v-7.051c0-1.063.86-1.924 1.923-1.924h7.051c1.062 0 1.923.861 1.923 1.924v7.051A1.923 1.923 0 0 1 23.077 25zm0-8.974h-7.051v7.051h7.051v-7.051zm0-5.129h-7.051a1.922 1.922 0 0 1-1.923-1.923V1.923c0-1.062.86-1.923 1.923-1.923h7.051C24.139 0 25 .861 25 1.923v7.051a1.923 1.923 0 0 1-1.923 1.923zm0-8.974h-7.051v7.051h7.051V1.923zM8.974 25H1.923A1.923 1.923 0 0 1 0 23.077v-7.051c0-1.063.861-1.924 1.923-1.924h7.051c1.063 0 1.923.861 1.923 1.924v7.051c0 1.062-.86 1.923-1.923 1.923zm0-8.974H1.923v7.051h7.051v-7.051zm0-5.129H1.923A1.923 1.923 0 0 1 0 8.974V1.923C0 .861.861 0 1.923 0h7.051c1.063 0 1.923.861 1.923 1.923v7.051c0 1.062-.86 1.923-1.923 1.923zm0-8.974H1.923v7.051h7.051V1.923z"></path></svg><svg width="39" height="40" id="lamp" y="1241"><path fill-rule="evenodd" fill="#FFF" d="M36.82 18.578h-1.68a1.26 1.26 0 1 1 0-2.52h1.68a1.26 1.26 0 0 1 0 2.52zM31.803 7.992a1.297 1.297 0 0 1-1.859 0 1.365 1.365 0 0 1 0-1.901l1.24-1.268a1.295 1.295 0 0 1 1.86.001 1.366 1.366 0 0 1 0 1.901l-1.241 1.267zm-6.729 22.662c.253.393.404.859.404 1.361v2.522c0 2.781-2.397 5.043-5.223 5.043h-1.709c-2.826 0-4.836-2.342-4.836-5.221v-2.61c0-.521-.136-.702.122-1.095-3.796-1.975-5.997-6.12-5.997-10.561 0-6.389 4.971-11.613 11.565-11.613 6.595 0 11.96 5.279 11.96 11.768 0 4.51-2.553 8.431-6.286 10.406zm-8.835 3.705c0 1.442.892 2.7 2.307 2.7h1.709c1.114 0 2.201-.704 2.548-1.681h-4.257a1.272 1.272 0 0 1-1.281-1.261c0-.697.574-1.261 1.281-1.261h4.411v-.841h-3.565l-3.153-.266v2.61zM19.4 11.002c-5.189 0-9.042 4.063-9.042 9.091 0 5.025 3.848 9.396 9.034 9.401h.017c5.185-.005 9.388-4.142 9.388-9.246 0-5.107-4.207-9.246-9.397-9.246zm5.98 10.507a1.271 1.271 0 0 1-1.281-1.261c0-2.549-2.108-4.623-4.699-4.623a1.271 1.271 0 0 1-1.281-1.261c0-.697.574-1.261 1.281-1.261 4.004 0 7.261 3.205 7.261 7.145a1.27 1.27 0 0 1-1.281 1.261zm-6.2-17.225c-.696 0-1.26-.563-1.26-1.258V1.349a1.26 1.26 0 1 1 2.52 0v1.677a1.26 1.26 0 0 1-1.26 1.258zM6.407 8.491c-.363 0-.727-.139-1.005-.417L4.061 6.731a1.426 1.426 0 0 1 0-2.014 1.418 1.418 0 0 1 2.01-.001l1.342 1.343a1.426 1.426 0 0 1-1.006 2.432zM4.48 17.318a1.26 1.26 0 0 1-1.26 1.26H1.54a1.26 1.26 0 1 1 0-2.52h1.68c.695 0 1.26.564 1.26 1.26zm.004 9.492a1.251 1.251 0 0 1 1.782.001 1.283 1.283 0 0 1 0 1.801l-1.189 1.2a1.25 1.25 0 0 1-1.782-.001 1.283 1.283 0 0 1 0-1.801l1.189-1.2zm29.652.49l1.072 1.081a1.158 1.158 0 0 1 0 1.624 1.126 1.126 0 0 1-1.606 0l-1.072-1.082a1.157 1.157 0 0 1 0-1.623 1.127 1.127 0 0 1 1.606 0z"></path></svg><svg width="24" height="24" viewBox="0 0 24 24" id="linux" y="1281"><path fill="#FFF" d="M20.581 19.049c-.55-.446-.336-1.431-.907-1.917.553-3.365-.997-6.331-2.845-8.232-1.551-1.595-1.051-3.147-1.051-4.49 0-2.146-.881-4.41-3.55-4.41-2.853 0-3.635 2.38-3.663 3.738-.068 3.262.659 4.11-1.25 6.484-2.246 2.793-2.577 5.579-2.07 7.057a2.924 2.924 0 0 1-1.155.835c-1.652.72-.441 1.925-.898 2.78a1.57 1.57 0 0 0-.192.74c0 .75.596 1.399 1.679 1.302 1.461-.13 2.809.905 3.681.905.77 0 1.402-.438 1.696-1.041 1.377-.339 3.077-.296 4.453.059.247.691.917 1.141 1.662 1.141 1.631 0 1.945-1.849 3.816-2.475.674-.225 1.013-.879 1.013-1.488 0-.39-.139-.761-.419-.988zM11.434 8.584c-.319 0-.583-.258-1-.568-.528-.392-1.065-.618-1.059-1.03 0-.283.379-.37.869-.681.526-.333.731-.671 1.249-.671.53 0 .69.268 1.41.579.708.307 1.201.427 1.201.773 0 .355-.741.609-1.158.868-.613.378-.928.73-1.512.73zm1.665-5.215c.882.141.981 1.691.559 2.454l-.355-.145c.184-.543.181-1.437-.435-1.494-.391-.036-.643.48-.697.922a1.686 1.686 0 0 0-.523-.127c.062-.923.658-1.737 1.451-1.61zM9.696 3.7c.676-.168 1.075.618 1.078 1.435l-.31.19c-.042-.343-.195-.897-.579-.779-.411.128-.344 1.083-.115 1.279l-.306.17c-.42-.707-.419-2.133.232-2.295zM7.581 22.943c-1.963-.893-2.63-.69-3.005-.69-.777 0-1.031-.579-.739-1.127.248-.465.171-.952.11-1.343-.094-.599-.111-.794.478-1.052.815-.346 1.177-.791 1.447-1.124.758-.937 1.523.537 2.15 1.85.407.851 1.208 1.282 1.455 2.225.227.871-.71 1.801-1.896 1.261zm6.987-1.874c-1.384.673-3.147.982-4.466.299-.195-.563-.507-.927-.843-1.293.539-.142.939-.814.46-1.489-.511-.721-1.555-1.224-2.61-2.04-.987-.763-1.299-2.644.045-4.746-.655 1.862-.272 3.578.057 4.069.068-.988.146-2.638 1.496-4.615.681-.998.691-2.316.706-3.14l.62.424c.456.337.838.708 1.386.708.81 0 1.258-.466 1.882-.853.244-.15.613-.302.923-.513.52 2.476 2.674 5.454 2.795 7.15.501-1.032-.142-3.514-.142-3.514.842 1.285.909 2.356.946 3.67.589.241 1.221.869 1.279 1.696l-.245-.028c-.126-.919-2.607-2.269-2.83-.539-1.19.181-.757 2.066-.997 3.288-.11.559-.314 1.001-.462 1.466zm4.846-.041c-.985.38-1.65 1.187-2.107 1.688-.88.966-2.044.503-2.168-.401-.131-.966.36-1.493.572-2.574.193-.987-.023-2.506.431-2.668.295 1.753 2.066 1.016 2.47.538.657 0 .712.222.859.837.092.385.219.709.578 1.09.418.447.29 1.133-.635 1.49zm-8-13.006c-.651 0-1.138-.433-1.534-.769-.203-.171.05-.487.253-.315.387.328.777.675 1.281.675.607 0 1.142-.519 1.867-.805.247-.097.388.285.143.382-.704.277-1.269.832-2.01.832z"></path></svg><svg width="17" height="16" id="login-user" y="1305"><path fill-rule="evenodd" fill="#cec0b5" d="M16.1 15.6H.9a.6.6 0 0 1-.6-.6c0-4.886 4.495-5.393 4.54-5.397a.6.6 0 0 1 .121 1.194c-.142.015-3.102.378-3.431 3.603h13.941c-.328-3.253-3.297-3.59-3.431-3.603a.6.6 0 0 1 .12-1.194c.045.004 4.54.511 4.54 5.397a.6.6 0 0 1-.6.6zM8.5 10c-2.206 0-3.8-2.153-3.8-4.8S6.294.4 8.5.4c2.206 0 3.8 2.153 3.8 4.8S10.706 10 8.5 10zm0-8.4c-1.546 0-2.6 1.612-2.6 3.6s1.054 3.6 2.6 3.6 2.6-1.612 2.6-3.6-1.054-3.6-2.6-3.6z"></path></svg><svg width="17" height="16" id="login-user-active" y="1321"><path fill-rule="evenodd" fill="#2b806b" d="M16.1 15.6H.9a.6.6 0 0 1-.6-.6c0-4.886 4.495-5.393 4.54-5.397a.6.6 0 0 1 .121 1.194c-.142.015-3.102.378-3.431 3.603h13.941c-.328-3.253-3.297-3.59-3.431-3.603a.6.6 0 0 1 .12-1.194c.045.004 4.54.511 4.54 5.397a.6.6 0 0 1-.6.6zM8.5 10c-2.206 0-3.8-2.153-3.8-4.8S6.294.4 8.5.4c2.206 0 3.8 2.153 3.8 4.8S10.706 10 8.5 10zm0-8.4c-1.546 0-2.6 1.612-2.6 3.6s1.054 3.6 2.6 3.6 2.6-1.612 2.6-3.6-1.054-3.6-2.6-3.6z"></path></svg><svg width="128" height="156" viewBox="0 0 96 117" id="mac" y="1337"><g fill="#FFF"><path d="M80.156 62.16c-.136-14.797 12.18-21.898 12.735-22.246C85.96 29.86 75.18 28.48 71.332 28.32c-9.172-.922-17.906 5.356-22.555 5.356-4.648 0-11.84-5.223-19.445-5.078-10.012.148-19.227 5.77-24.383 14.656-10.386 17.883-2.648 44.383 7.465 58.898 4.953 7.094 10.852 15.09 18.606 14.797 7.472-.297 10.293-4.789 19.308-4.789 9.016 0 11.559 4.79 19.453 4.649 8.028-.157 13.121-7.25 18.04-14.368 5.671-8.238 8.019-16.21 8.152-16.629-.176-.074-15.657-5.96-15.817-23.652M65.324 18.719c4.114-4.946 6.89-11.82 6.125-18.672C65.523.28 58.348 3.965 54.094 8.91c-3.809 4.371-7.153 11.367-6.246 18.082 6.609.508 13.359-3.34 17.476-8.273"></path></g></svg><svg width="17" height="14" id="mail-user" y="1493"><path fill-rule="evenodd" fill="#cec0b5" d="M15.66.915H1.22c-.63 0-1.14.51-1.14 1.14v10.64c0 .629.51 1.14 1.14 1.14h14.44c.63 0 1.14-.511 1.14-1.14V2.055c0-.63-.51-1.14-1.14-1.14zm0 10.974l-3.017-3.017a.57.57 0 1 0-.806.806l3.017 3.017H2.026l3.017-3.017a.57.57 0 1 0-.806-.806L1.22 11.889V4.575L8.069 9.73a.564.564 0 0 0 .683.001L15.66 4.57v7.319zm0-9.834v1.093L8.413 8.562 1.22 3.148V2.055h14.44z"></path></svg><svg width="17" height="14" id="mail-user-active" y="1507"><path fill-rule="evenodd" fill="#2b806b" d="M15.66.915H1.22c-.63 0-1.14.51-1.14 1.14v10.64c0 .629.51 1.14 1.14 1.14h14.44c.63 0 1.14-.511 1.14-1.14V2.055c0-.63-.51-1.14-1.14-1.14zm0 10.974l-3.017-3.017a.57.57 0 1 0-.806.806l3.017 3.017H2.026l3.017-3.017a.57.57 0 1 0-.806-.806L1.22 11.889V4.575L8.069 9.73a.564.564 0 0 0 .683.001L15.66 4.57v7.319zm0-9.834v1.093L8.413 8.562 1.22 3.148V2.055h14.44z"></path></svg><svg width="25" height="21" id="moderate-tab" y="1521"><path fill-rule="evenodd" fill="#fff" d="M22.835 21h-3.197a2.12 2.12 0 0 0 .124-.715v-7.236c0-.601-.107-1.177-.304-1.712h1.933c1.99 0 3.609 1.604 3.609 3.574v3.945A2.157 2.157 0 0 1 22.835 21zm-2.714-10.566a3.254 3.254 0 0 1-2.864-1.704 3.175 3.175 0 0 1-.382-1.51c0-1.772 1.456-3.214 3.246-3.214s3.246 1.442 3.246 3.214-1.456 3.214-3.246 3.214zm-5.5-2.388a4.342 4.342 0 0 1-2.121.549 4.34 4.34 0 0 1-2.121-.549A4.294 4.294 0 0 1 8.16 4.298C8.16 1.928 10.107 0 12.5 0s4.34 1.928 4.34 4.298a4.294 4.294 0 0 1-2.219 3.748zm-8.463 2.128c-.393.167-.825.26-1.279.26-1.79 0-3.246-1.442-3.246-3.214s1.456-3.214 3.246-3.214S8.125 5.448 8.125 7.22c0 .545-.139 1.059-.382 1.51a3.254 3.254 0 0 1-1.585 1.444zm-.616 1.163a4.942 4.942 0 0 0-.305 1.712v7.236c0 .251.045.491.125.715H2.165A2.157 2.157 0 0 1 0 18.856v-3.945c0-1.97 1.619-3.574 3.609-3.574h1.933zm4.748-1.861h4.42c1.99 0 3.609 1.603 3.609 3.573v7.236a.718.718 0 0 1-.722.715H7.403a.718.718 0 0 1-.722-.715v-7.236c0-1.97 1.619-3.573 3.609-3.573z"></path></svg><svg viewBox="0 0 511.719 511.719" width="511.719" height="511.719" id="mozilla" y="1542"><path d="M255.044 503.909c135.492 0 245.332-112.728 245.332-251.768 0-139.028-109.844-251.76-245.332-251.76C119.536.381 9.692 113.113 9.692 252.141c-.004 139.04 109.856 251.768 245.352 251.768z" fill="#2179a6"></path><path d="M498.216 285.105c-1.28.976-2.58 1.944-3.984 2.836 2.172-5.876 4.14-13.444 5.772-22.156.236-4.52.376-9.068.376-13.652 0-52.572-15.732-101.364-42.584-141.744-24.308-28.752-57.408-53.424-101.264-65.828 47.196 31.912 64.828 59.024 75.984 83.148-12.624-13.236-34.228-27.044-48.812-28.192 21.876 16.684 58.484 66.18 54.588 141.168-5.612-12.08-15.88-30.988-23.172-37.604 7.852 73.648.976 89.46-3.792 109.024-1.048-8.992-4.204-15.744-6.024-19.848 0 0-.84 23.016-15.42 55.808-11.048 24.836-22.448 32.508-27.492 31.64-1.376-.092-2.108-.696-2.096-.752.36-3.216.684-6.584-.148-8.732 0 0-4.66 1.648-7.668 5.984-1.212 1.748-2.78 3.452-4.84 5.056-.352.28 3.328-4.836 3.052-4.6a65.298 65.298 0 0 0-5.708 5.36c-7.152 7.612-13.596 16.056-16.956 13.664 3.128-.976 5.624-5.06 6.3-9.06-2.808 2.012-9.94 7.48-25.94 9.916-6.544 1-34.38 6.188-71.4-12.796 5.4-.632 13.476-2.584 19.632 1.148-6.156-6.892-21.032-5.46-31.696-8.916-9.292-3.016-21.42-16.388-28.388-23.14 28.492 7.156 58.748 1.992 76.24-10.272 17.676-12.4 28.148-21.452 37.544-19.308 9.38 2.144 15.632-7.508 8.324-16.088-7.28-8.584-24.944-20.124-48.98-13.944-18.4 4.728-34.084 19.876-59.928 9.344a63.766 63.766 0 0 1-4.832-2.204c-1.652-.844 5.404 1 3.664-.048-4.968-1.88-14-6.124-16.24-7.736-.364-.28 3.74.764 3.312.492-24.532-14.884-22.924-26.788-22.924-34.16 0-5.896 3.492-13.868 10.044-17.604 3.536 1.292 5.732 2.476 5.732 2.476s-1.632-2.576-2.668-3.824c.24-.088.488-.156.736-.228 2.888 1.004 13.16 5.316 18.644 9.804 6.516-12.488 1.644-33.168.976-34.448 0-.024.016-.028.016-.06 1.38-6.348 38.272-26.176 41.032-28.268 3.82-2.9 7.712-7.372 10.148-12.52 1.768-3.288 3.04-7.968 2.696-14.712-.252-4.868-3.072-7.844-42.416-7.504-10.752.084-17.752-6.332-21.984-12.448a132.89 132.89 0 0 1-2.296-3.74c-.928-1.7-1.556-3.212-2.032-4.432 4.7-17.492 20.368-42.356 34.52-49.936-26.144-8.424-58.144 15.576-67.24 28.46-.028.044-.064.08-.088.116-22.996-5.86-42.512-4.44-58.832.924-12.116-6.016-19.804-18.668-24.16-30.376a252.078 252.078 0 0 0-29.64 39.904 149.64 149.64 0 0 0-.752 28.752c-.012 1.428.208 2.812.164 4.092-6.188 8.74-10.224 16.26-11.796 19.968-7.548 15.096-15.28 38.308-21.52 74.36 0 0 4.192-13.588 12.572-28.976-6 18.824-10.708 47.84-8.38 90.908.14.612.272 1.24.416 1.848.488-4.148 1.84-13.936 4.492-26.32 1.6 30.064 8.56 67.024 31.396 107.1a298.544 298.544 0 0 0 7.748 12.892c44.844 60.032 115.404 98.78 194.804 98.78 124.588.008 227.42-95.344 243.168-218.796z" fill="#195d80"></path><path d="M440.992 401.377c14.088-27.196 33.208-43.12 43.56-61.928 13.736-25.02 39.688-95.364 20.12-152.1 8.968 35.524 6.168 71.616-22.44 89.744 9.252-25.028 15.052-79.94 5.516-129.412-6.204-32.148-25.82-60.952-38.608-69.932 11.772 9.056 21.244 41.488 20.98 56.372-24.632-42.544-64.828-83.22-125.588-100.404 47.196 31.912 64.828 59.024 75.984 83.148-12.616-13.236-34.224-27.044-48.812-28.192 21.876 16.684 58.492 66.18 54.592 141.168-5.608-12.08-15.884-30.988-23.172-37.604 7.852 73.652.976 89.464-3.792 109.024-1.048-8.992-4.204-15.744-6.024-19.848 0 0-.84 23.016-15.424 55.808-11.044 24.836-22.444 32.508-27.492 31.64-1.368-.092-2.104-.696-2.092-.752.36-3.216.684-6.584-.148-8.732 0 0-4.66 1.648-7.668 5.984-1.212 1.748-2.776 3.452-4.84 5.056-.352.28 3.328-4.836 3.056-4.6a64.747 64.747 0 0 0-5.712 5.36c-7.152 7.612-13.6 16.056-16.952 13.664 3.124-.976 5.62-5.06 6.296-9.06-2.812 2.012-9.944 7.48-25.936 9.916-6.548 1-34.384 6.188-71.404-12.796 5.4-.632 13.476-2.584 19.632 1.148-6.156-6.892-21.032-5.46-31.696-8.916-9.292-3.016-21.42-16.388-28.388-23.14 28.492 7.156 58.748 1.992 76.24-10.272 17.676-12.4 28.152-21.452 37.544-19.308 9.376 2.144 15.632-7.512 8.324-16.088-7.276-8.584-24.94-20.124-48.98-13.944-18.4 4.728-34.084 19.876-59.928 9.344a63.766 63.766 0 0 1-4.832-2.204c-1.652-.844 5.404 1 3.664-.052-4.968-1.876-14-6.12-16.24-7.732-.364-.28 3.74.764 3.312.492-24.532-14.884-22.924-26.788-22.924-34.164 0-5.896 3.492-13.868 10.044-17.604 3.536 1.292 5.732 2.476 5.732 2.476s-1.632-2.576-2.668-3.824c.24-.088.488-.156.736-.228 2.888 1.004 13.16 5.316 18.644 9.804 6.516-12.488 1.644-33.168.976-34.448 0-.024.016-.028.016-.06 1.38-6.348 38.272-26.176 41.032-28.268 3.82-2.9 7.712-7.372 10.148-12.52 1.768-3.288 3.04-7.968 2.696-14.712-.252-4.868-3.068-7.844-42.412-7.504-10.752.084-17.752-6.332-21.984-12.448a132.89 132.89 0 0 1-2.296-3.74c-.928-1.7-1.556-3.212-2.032-4.432 4.7-17.492 20.368-42.356 34.52-49.936-26.148-8.428-58.148 15.572-67.244 28.452-.028.044-.064.084-.088.116-22.996-5.86-42.512-4.44-58.832.924-19.984-9.92-27.984-37.92-28.724-49.9-11.26 7.98-21.632 40.168-23 46.588-2 10.148-4.052 24.004-2.832 41.596-.012 1.428.208 2.812.164 4.092-6.188 8.74-10.224 16.26-11.796 19.968-7.548 15.096-15.28 38.308-21.52 74.36 0 0 4.192-13.588 12.572-28.976-6.18 19.384-11.008 49.532-8.172 94.752.112-1.492 1.404-12.916 4.7-28.312 1.6 30.064 8.56 67.024 31.396 107.1 17.4 30.568 63.26 101.576 178.328 128.148-12.632-3.736-20.484-11.22-20.484-11.22s42.976 14.164 74.344 12.956c-9.82-1.74-11.78-6.612-11.78-6.612s111.516 6.468 150.076-47.476c-13.18 15.812-46.56 20.276-59.188 20.416 19.22-18.112 61.708-17.688 107.732-64.14 25.248-25.488 27.972-44.876 30.728-63-4.224 23.736-26.256 37.972-49.26 50.924z" fill="#e78244"></path><path d="M248.94 160.637c1.78-4.464 3.804-14.952-2.028-17.152-4.864-1.196-8.988-2.06-16.916-1.88 2.612.668 10.112 2.184 12.06 5.772 3.716 6.864-5.064 23.312-6.34 26.812 4 .004 11.472-9.16 13.224-13.552z" fill="#144f66"></path></svg><svg viewBox="0 0 512 512" width="512" height="512" id="opera" y="2054"><path d="M497.996 253.792C497.996 415.06 398.152 512 251.188 512c-137.384 0-237.184-97.628-237.184-252.304C14.004 113.196 115.152 0 258.024 0c142.18 0 239.972 103.544 239.972 253.792zm-244.788-174.4c-67.92 0-104.388 67.696-104.388 166 0 71.828 23.748 187.216 113.796 187.216 72.36 0 100.564-75.344 100.564-170.72 0-100.648-41.46-182.496-109.972-182.496z" fill="#e16b5a"></path><g fill="#bf5b4d"><path d="M244.908 79.784c-2.532-.236-5.084-.392-7.7-.392-67.92 0-104.388 67.696-104.388 166 0 71.828 23.748 187.216 113.796 187.216 2.656 0 5.236-.128 7.764-.328-83.272-6.82-105.568-117.3-105.568-186.888.008-94.212 33.516-160.268 96.096-165.608z"></path><path d="M258.024 0c-2.584 0-5.116.116-7.672.188 137.64 3.984 231.644 106.316 231.644 253.604 0 158.208-96.12 254.432-238.52 258.036 2.568.072 5.116.172 7.712.172 146.964 0 246.808-96.936 246.808-258.208C497.996 103.544 400.204 0 258.024 0z"></path></g></svg><svg width="28" height="30" id="play" y="2566"><path fill-rule="evenodd" fill="#FFF" d="M4.208 29.996a3.886 3.886 0 0 1-1.947-.526 3.85 3.85 0 0 1-1.954-3.374V3.883c0-1.409.73-2.67 1.953-3.373a3.865 3.865 0 0 1 3.904.005l7.366 4.262c.621.359.833 1.153.472 1.774a1.304 1.304 0 0 1-1.777.472L4.859 2.761a1.28 1.28 0 0 0-1.3-.002 1.274 1.274 0 0 0-.652 1.124v22.213c0 .678.456 1.012.652 1.125.195.113.716.339 1.3-.002l19.192-11.107c.585-.338.649-.898.649-1.122 0-.225-.064-.784-.649-1.123l-7.005-4.055a1.297 1.297 0 1 1 1.305-2.245l7.005 4.054A3.855 3.855 0 0 1 27.3 14.99a3.853 3.853 0 0 1-1.944 3.368L6.164 29.465a3.89 3.89 0 0 1-1.956.531z"></path></svg><svg width="16" height="16" id="plus" y="2596"><path fill-rule="evenodd" fill="#FFF" d="M14.574 9.301H9.301v5.273a.551.551 0 0 1-.551.551h-1.5a.551.551 0 0 1-.551-.551V9.301H1.426a.551.551 0 0 1-.551-.551v-1.5c0-.304.247-.551.551-.551h5.273V1.426c0-.304.247-.551.551-.551h1.5c.304 0 .551.247.551.551v5.273h5.273c.304 0 .551.247.551.551v1.5a.551.551 0 0 1-.551.551z"></path></svg><svg width="16" height="14" id="prev" y="2612"><path fill-rule="evenodd" fill="#807770" d="M12.045 2.259H5.772L6.298.975a.665.665 0 0 0-.201-.772.67.67 0 0 0-.8-.026L1.05 3.124a.669.669 0 0 0 .035 1.12l4.441 2.694a.669.669 0 0 0 .952-.861l-.584-1.233h6.151a.83.83 0 0 1 .823.829v4.495a.818.818 0 0 1-.823.815H5.238c-.608 0-1.1.492-1.1 1.098v.389c0 .606.492 1.098 1.1 1.098h6.807a3.407 3.407 0 0 0 3.411-3.4V5.673a3.418 3.418 0 0 0-3.411-3.414z"></path></svg><svg width="13" height="12" id="select-file" y="2626"><path fill-rule="evenodd" fill="#807373" d="M9.2 12a2.835 2.835 0 0 1-1.743-.6H2.45c-.827 0-1.5-.673-1.5-1.5V1.5c0-.827.673-1.5 1.5-1.5h4.585c.495 0 .962.249 1.239.655l1.98 2.358c.03.036.058.075.082.115.14.233.214.5.214.772v2.741a2.853 2.853 0 0 1 1.5 2.509A2.854 2.854 0 0 1 9.2 12zm.45-8.1a.6.6 0 0 0-.086-.309l-2.014-2.4A.603.603 0 0 0 7.035.9H2.45a.6.6 0 0 0-.6.6v8.4a.6.6 0 0 0 .6.6h4.241A2.853 2.853 0 0 1 9.2 6.3c.153 0 .303.016.45.039V3.9zM9.2 7.2a1.95 1.95 0 1 0 0 3.9 1.95 1.95 0 0 0 0-3.9zm.9 2.4h-.45v.45a.45.45 0 0 1-.9 0V9.6H8.3a.45.45 0 0 1 0-.9h.45v-.45a.45.45 0 1 1 .9 0v.45h.45a.45.45 0 0 1 0 .9z"></path></svg><svg width="17" height="17" id="settings-user" y="2638"><path fill-rule="evenodd" fill="#cec0b5" d="M15.759 10.843h-.371a7.114 7.114 0 0 1-.393.952l.261.261a1.136 1.136 0 0 1 0 1.612l-1.612 1.612a1.137 1.137 0 0 1-1.612 0l-.261-.261a7.06 7.06 0 0 1-.952.393v.371a1.14 1.14 0 0 1-1.14 1.14h-2.28a1.14 1.14 0 0 1-1.14-1.14v-.371a7.06 7.06 0 0 1-.952-.393l-.261.261a1.141 1.141 0 0 1-1.613 0l-1.612-1.612a1.14 1.14 0 0 1 0-1.612l.261-.261a7.114 7.114 0 0 1-.393-.952h-.37a1.14 1.14 0 0 1-1.14-1.14v-2.28c0-.63.51-1.14 1.14-1.14h.37c.108-.328.239-.645.393-.953l-.261-.261a1.136 1.136 0 0 1 0-1.612l1.612-1.612a1.137 1.137 0 0 1 1.613 0l.261.261a7.06 7.06 0 0 1 .952-.393v-.37c0-.63.51-1.141 1.14-1.141h2.28c.629 0 1.14.511 1.14 1.141v.37c.327.108.645.239.952.393l.261-.261c.222-.223.514-.334.806-.334.292 0 .583.111.806.334l1.612 1.612a1.14 1.14 0 0 1 0 1.612l-.261.261c.154.308.285.625.393.953h.371c.629 0 1.14.51 1.14 1.14v2.28a1.14 1.14 0 0 1-1.14 1.14zm0-3.42h-1.251a6.047 6.047 0 0 0-.941-2.277l.883-.883-1.612-1.612-.883.883a6.042 6.042 0 0 0-2.276-.941v-1.25h-2.28v1.25a6.047 6.047 0 0 0-2.277.941l-.883-.883-1.612 1.612.883.883a6.047 6.047 0 0 0-.941 2.277h-1.25v2.28h1.25c.158.83.482 1.602.941 2.276l-.883.883 1.612 1.612.883-.883a6.047 6.047 0 0 0 2.277.941v1.251h2.28v-1.251a6.042 6.042 0 0 0 2.276-.941l.883.883 1.612-1.612-.883-.883a6.049 6.049 0 0 0 .941-2.276h1.251v-2.28zm-7.22 4.179a3.042 3.042 0 0 1-3.04-3.039 3.042 3.042 0 0 1 3.04-3.04 3.043 3.043 0 0 1 3.04 3.04 3.043 3.043 0 0 1-3.04 3.039zm0-4.939a1.9 1.9 0 1 0-.002 3.798 1.9 1.9 0 0 0 .002-3.798z"></path></svg><svg width="17" height="17" id="settings-user-active" y="2655"><path fill-rule="evenodd" fill="#2b806b" d="M15.759 10.843h-.371a7.114 7.114 0 0 1-.393.952l.261.261a1.136 1.136 0 0 1 0 1.612l-1.612 1.612a1.137 1.137 0 0 1-1.612 0l-.261-.261a7.06 7.06 0 0 1-.952.393v.371a1.14 1.14 0 0 1-1.14 1.14h-2.28a1.14 1.14 0 0 1-1.14-1.14v-.371a7.06 7.06 0 0 1-.952-.393l-.261.261a1.141 1.141 0 0 1-1.613 0l-1.612-1.612a1.14 1.14 0 0 1 0-1.612l.261-.261a7.114 7.114 0 0 1-.393-.952h-.37a1.14 1.14 0 0 1-1.14-1.14v-2.28c0-.63.51-1.14 1.14-1.14h.37c.108-.328.239-.645.393-.953l-.261-.261a1.136 1.136 0 0 1 0-1.612l1.612-1.612a1.137 1.137 0 0 1 1.613 0l.261.261a7.06 7.06 0 0 1 .952-.393v-.37c0-.63.51-1.141 1.14-1.141h2.28c.629 0 1.14.511 1.14 1.141v.37c.327.108.645.239.952.393l.261-.261c.222-.223.514-.334.806-.334.292 0 .583.111.806.334l1.612 1.612a1.14 1.14 0 0 1 0 1.612l-.261.261c.154.308.285.625.393.953h.371c.629 0 1.14.51 1.14 1.14v2.28a1.14 1.14 0 0 1-1.14 1.14zm0-3.42h-1.251a6.047 6.047 0 0 0-.941-2.277l.883-.883-1.612-1.612-.883.883a6.042 6.042 0 0 0-2.276-.941v-1.25h-2.28v1.25a6.047 6.047 0 0 0-2.277.941l-.883-.883-1.612 1.612.883.883a6.047 6.047 0 0 0-.941 2.277h-1.25v2.28h1.25c.158.83.482 1.602.941 2.276l-.883.883 1.612 1.612.883-.883a6.047 6.047 0 0 0 2.277.941v1.251h2.28v-1.251a6.042 6.042 0 0 0 2.276-.941l.883.883 1.612-1.612-.883-.883a6.049 6.049 0 0 0 .941-2.276h1.251v-2.28zm-7.22 4.179a3.042 3.042 0 0 1-3.04-3.039 3.042 3.042 0 0 1 3.04-3.04 3.043 3.043 0 0 1 3.04 3.04 3.043 3.043 0 0 1-3.04 3.039zm0-4.939a1.9 1.9 0 1 0-.002 3.798 1.9 1.9 0 0 0 .002-3.798z"></path></svg><svg width="17" height="15" id="shop-user" y="2672"><path fill-rule="evenodd" fill="#cec0b5" d="M15.828 7.73h-.004c-.287 1.853-1.153 6.341-1.153 6.341a1.16 1.16 0 0 1-1.141.941H3.47a1.16 1.16 0 0 1-1.141-.941s-.866-4.82-1.153-6.341h-.004A1.162 1.162 0 0 1 .015 6.563V5.091c0-.691.518-1.22 1.157-1.22h.733c.006-.007.008-.017.015-.024L5.741.18a.575.575 0 0 1 .818 0 .587.587 0 0 1 0 .825L3.533 3.871h9.934l-3.026-2.866a.587.587 0 0 1 0-.825.575.575 0 0 1 .818 0l3.821 3.667c.007.007.009.017.015.024h.733c.639 0 1.157.529 1.157 1.22v1.472c0 .645-.518 1.167-1.157 1.167zM3.47 13.858h10.06l1.141-6.156H2.329l1.141 6.156zm12.358-8.849H1.172v1.554h14.656V5.009zm-4.435 7.994a.582.582 0 0 1-.579-.584V9.697c0-.322.259-.584.579-.584.319 0 .578.262.578.584v2.722a.582.582 0 0 1-.578.584zm-1.929 0a.582.582 0 0 1-.578-.584V9.697c0-.322.259-.584.578-.584.32 0 .579.262.579.584v2.722a.582.582 0 0 1-.579.584zm-1.928 0a.582.582 0 0 1-.579-.584V9.697c0-.322.259-.584.579-.584.319 0 .578.262.578.584v2.722a.582.582 0 0 1-.578.584zm-1.929 0a.582.582 0 0 1-.578-.584V9.697c0-.322.259-.584.578-.584.32 0 .579.262.579.584v2.722a.582.582 0 0 1-.579.584z"></path></svg><svg width="17" height="15" id="shop-user-active" y="2687"><path fill-rule="evenodd" fill="#2b806b" d="M15.828 7.73h-.004c-.287 1.853-1.153 6.341-1.153 6.341a1.16 1.16 0 0 1-1.141.941H3.47a1.16 1.16 0 0 1-1.141-.941s-.866-4.82-1.153-6.341h-.004A1.162 1.162 0 0 1 .015 6.563V5.091c0-.691.518-1.22 1.157-1.22h.733c.006-.007.008-.017.015-.024L5.741.18a.575.575 0 0 1 .818 0 .587.587 0 0 1 0 .825L3.533 3.871h9.934l-3.026-2.866a.587.587 0 0 1 0-.825.575.575 0 0 1 .818 0l3.821 3.667c.007.007.009.017.015.024h.733c.639 0 1.157.529 1.157 1.22v1.472c0 .645-.518 1.167-1.157 1.167zM3.47 13.858h10.06l1.141-6.156H2.329l1.141 6.156zm12.358-8.849H1.172v1.554h14.656V5.009zm-4.435 7.994a.582.582 0 0 1-.579-.584V9.697c0-.322.259-.584.579-.584.319 0 .578.262.578.584v2.722a.582.582 0 0 1-.578.584zm-1.929 0a.582.582 0 0 1-.578-.584V9.697c0-.322.259-.584.578-.584.32 0 .579.262.579.584v2.722a.582.582 0 0 1-.579.584zm-1.928 0a.582.582 0 0 1-.579-.584V9.697c0-.322.259-.584.579-.584.319 0 .578.262.578.584v2.722a.582.582 0 0 1-.578.584zm-1.929 0a.582.582 0 0 1-.578-.584V9.697c0-.322.259-.584.578-.584.32 0 .579.262.579.584v2.722a.582.582 0 0 1-.579.584z"></path></svg><svg width="26" height="21" id="twitter" y="2702"><path fill-rule="evenodd" fill="#544c4c" d="M26 2.486c-.967.422-1.997.701-3.071.837A5.279 5.279 0 0 0 25.274.394a10.699 10.699 0 0 1-3.38 1.283A5.357 5.357 0 0 0 18 0c-2.951 0-5.327 2.381-5.327 5.3 0 .42.036.824.124 1.208A15.117 15.117 0 0 1 1.81.966a5.308 5.308 0 0 0-.729 2.678c0 1.835.95 3.462 2.367 4.404a5.291 5.291 0 0 1-2.408-.653v.058c0 2.575 1.848 4.714 4.27 5.207a5.337 5.337 0 0 1-1.397.174c-.341 0-.686-.019-1.009-.09a5.376 5.376 0 0 0 4.98 3.691 10.75 10.75 0 0 1-6.608 2.26c-.438 0-.857-.02-1.276-.073A15.067 15.067 0 0 0 8.177 21c9.808 0 15.171-8.077 15.171-15.078 0-.234-.008-.46-.02-.685A10.592 10.592 0 0 0 26 2.486z"></path></svg><svg width="23" height="22" id="user-button" y="2723"><path fill-rule="evenodd" fill="#FFF" d="M8.247 8.25a.916.916 0 1 1 1.832 0 .916.916 0 0 1-1.832 0zm3.669 0a.917.917 0 1 1 1.833.001.917.917 0 0 1-1.833-.001zm9.53 13.672a.918.918 0 0 1-1.202-.489c-.403-.956-1.941-3.004-3.879-4.138-.206.643-.649 1.236-1.318 1.712-.542.388-1.228.698-1.982.895a8.122 8.122 0 0 1-2.066.259c-2.671 0-4.834-1.208-5.37-2.864-1.937 1.134-3.473 3.18-3.875 4.136a.924.924 0 0 1-1.203.489.918.918 0 0 1-.489-1.201c.633-1.499 3.156-4.75 6.326-5.75C4.855 13.69 3.66 11.395 3.66 7.334c0-4.041 3.292-7.329 7.339-7.329A7.352 7.352 0 0 1 15 1.189a.916.916 0 1 1-1.007 1.532 5.449 5.449 0 0 0-2.994-.884 5.507 5.507 0 0 0-5.504 5.497c0 4.932 1.8 7.33 5.504 7.33 3.703 0 5.504-2.398 5.504-7.33 0-.692-.127-1.368-.378-2.008a.914.914 0 0 1 .518-1.187.918.918 0 0 1 1.189.518c.335.854.506 1.755.506 2.677 0 4.061-1.195 6.356-2.728 7.637 3.169 1 5.693 4.251 6.325 5.75a.917.917 0 0 1-.489 1.201zm-7.695-5.426H8.247c-.301 0-.599.043-.894.107.121.836 1.632 1.725 3.646 1.725.561 0 1.099-.067 1.601-.198.54-.142 1.016-.354 1.379-.613.238-.169.605-.504.666-.914a4.217 4.217 0 0 0-.894-.107z"></path></svg><svg width="23" height="15" id="view" y="2745"><path fill-rule="evenodd" fill="#FFF" d="M22.559 8.667c-1.594 1.904-5.862 6.33-11.07 6.33S2.013 10.571.42 8.668a1.793 1.793 0 0 1 0-2.333C2.012 4.432 6.279.005 11.489.005c5.21 0 9.477 4.427 11.07 6.33a1.794 1.794 0 0 1 0 2.332zM21.027 7.5c-1.104-1.321-5.057-5.628-9.538-5.628S3.055 6.179 1.951 7.5c1.104 1.323 5.059 5.63 9.538 5.63s8.434-4.307 9.539-5.627l-.001-.003zm-9.538 3.763c-2.16 0-3.916-1.674-3.916-3.733s1.756-3.733 3.916-3.733c.447 0 .884.071 1.302.211.51.172.777.706.598 1.191-.181.486-.739.738-1.25.57a2.026 2.026 0 0 0-.65-.106c-1.079 0-1.958.838-1.958 1.867s.879 1.867 1.958 1.867 1.958-.838 1.958-1.867c0-.516.438-.933.979-.933.541 0 .979.417.979.933 0 2.059-1.756 3.733-3.916 3.733z"></path></svg><svg width="32" height="18" id="vk" y="2760"><path fill-rule="evenodd" fill="#544c4c" d="M31.714 16.055c-.086-.141-.618-1.281-3.178-3.624-2.68-2.453-2.32-2.055.908-6.296C31.41 3.552 32.196 1.974 31.95 1.3c-.234-.643-1.68-.474-1.68-.474l-4.808.028s-.356-.047-.622.108c-.258.154-.424.509-.424.509s-.762 2-1.778 3.7c-2.143 3.586-3.001 3.776-3.351 3.553-.814-.519-.61-2.086-.61-3.199 0-3.476.534-4.925-1.042-5.3-.524-.124-.908-.207-2.246-.221-1.716-.018-3.17.006-3.992.402-.548.265-.97.854-.712.888.318.041 1.038.191 1.42.704.494.66.476 2.147.476 2.147s.284 4.092-.662 4.601c-.65.349-1.54-.363-3.45-3.619-.978-1.666-1.718-3.51-1.718-3.51s-.142-.343-.396-.526c-.308-.223-.74-.294-.74-.294L1.043.824s-.686.02-.938.314c-.224.262-.018.803-.018.803s3.58 8.256 7.632 12.419c3.718 3.815 7.938 3.565 7.938 3.565h1.912s.578-.063.872-.377c.272-.288.262-.828.262-.828s-.038-2.53 1.154-2.903c1.174-.366 2.682 2.446 4.281 3.528 1.208.818 2.126.639 2.126.639l4.274-.059s2.236-.136 1.176-1.87z"></path></svg><svg width="19" height="19" id="vote-user" y="2778"><path fill-rule="evenodd" fill="#cec0b5" d="M17.48 8.932h-.76a.57.57 0 0 1 0-1.14h.76a.57.57 0 1 1 0 1.14zm-2.27-4.789a.588.588 0 0 1-.841 0 .62.62 0 0 1 0-.861l.562-.573a.585.585 0 0 1 .841.001.618.618 0 0 1 0 .86l-.562.573zm-3.044 10.252c.115.177.183.388.183.615v1.141c0 1.258-1.084 2.282-2.363 2.282h-.773c-1.278 0-2.188-1.06-2.188-2.362V14.89c0-.236-.061-.318.056-.495-1.717-.894-2.713-2.769-2.713-4.778 0-2.89 2.249-5.253 5.232-5.253s5.41 2.388 5.41 5.323a5.329 5.329 0 0 1-2.844 4.708zm-3.997 1.676c0 .652.404 1.221 1.044 1.221h.773c.504 0 .996-.319 1.153-.761H9.213a.574.574 0 0 1-.579-.57c0-.315.259-.57.579-.57h1.996v-.381H9.596l-1.427-.12v1.181zM9.6 5.504c-2.348 0-4.091 1.838-4.091 4.113 0 2.273 1.741 4.251 4.087 4.253h.008c2.345-.002 4.247-1.874 4.247-4.183 0-2.31-1.904-4.183-4.251-4.183zm2.705 4.753a.575.575 0 0 1-.58-.57c0-1.153-.953-2.091-2.125-2.091a.576.576 0 0 1-.58-.571c0-.315.26-.57.58-.57 1.811 0 3.285 1.45 3.285 3.232 0 .315-.26.57-.58.57zM9.5 2.465a.57.57 0 0 1-.57-.569v-.758a.569.569 0 1 1 1.14 0v.758a.57.57 0 0 1-.57.569zM3.722 4.368a.644.644 0 0 1-.455-.188l-.606-.608a.645.645 0 0 1 0-.911.641.641 0 0 1 .909 0l.607.607a.645.645 0 0 1-.455 1.1zM2.85 8.362a.57.57 0 0 1-.57.57h-.76a.57.57 0 0 1 0-1.14h.76a.57.57 0 0 1 .57.57zm.002 4.294a.566.566 0 0 1 .806 0 .582.582 0 0 1 0 .815l-.538.543a.566.566 0 0 1-.806-.001.579.579 0 0 1 0-.814l.538-.543zm13.414.221l.485.489c.2.203.2.532 0 .735a.511.511 0 0 1-.727 0l-.485-.489a.525.525 0 0 1 0-.735.51.51 0 0 1 .727 0z"></path></svg><svg width="19" height="19" id="vote-user-active" y="2797"><path fill-rule="evenodd" fill="#2b806b" d="M17.48 8.932h-.76a.57.57 0 0 1 0-1.14h.76a.57.57 0 1 1 0 1.14zm-2.27-4.789a.588.588 0 0 1-.841 0 .62.62 0 0 1 0-.861l.562-.573a.585.585 0 0 1 .841.001.618.618 0 0 1 0 .86l-.562.573zm-3.044 10.252c.115.177.183.388.183.615v1.141c0 1.258-1.084 2.282-2.363 2.282h-.773c-1.278 0-2.188-1.06-2.188-2.362V14.89c0-.236-.061-.318.056-.495-1.717-.894-2.713-2.769-2.713-4.778 0-2.89 2.249-5.253 5.232-5.253s5.41 2.388 5.41 5.323a5.329 5.329 0 0 1-2.844 4.708zm-3.997 1.676c0 .652.404 1.221 1.044 1.221h.773c.504 0 .996-.319 1.153-.761H9.213a.574.574 0 0 1-.579-.57c0-.315.259-.57.579-.57h1.996v-.381H9.596l-1.427-.12v1.181zM9.6 5.504c-2.348 0-4.091 1.838-4.091 4.113 0 2.273 1.741 4.251 4.087 4.253h.008c2.345-.002 4.247-1.874 4.247-4.183 0-2.31-1.904-4.183-4.251-4.183zm2.705 4.753a.575.575 0 0 1-.58-.57c0-1.153-.953-2.091-2.125-2.091a.576.576 0 0 1-.58-.571c0-.315.26-.57.58-.57 1.811 0 3.285 1.45 3.285 3.232 0 .315-.26.57-.58.57zM9.5 2.465a.57.57 0 0 1-.57-.569v-.758a.569.569 0 1 1 1.14 0v.758a.57.57 0 0 1-.57.569zM3.722 4.368a.644.644 0 0 1-.455-.188l-.606-.608a.645.645 0 0 1 0-.911.641.641 0 0 1 .909 0l.607.607a.645.645 0 0 1-.455 1.1zM2.85 8.362a.57.57 0 0 1-.57.57h-.76a.57.57 0 0 1 0-1.14h.76a.57.57 0 0 1 .57.57zm.002 4.294a.566.566 0 0 1 .806 0 .582.582 0 0 1 0 .815l-.538.543a.566.566 0 0 1-.806-.001.579.579 0 0 1 0-.814l.538-.543zm13.414.221l.485.489c.2.203.2.532 0 .735a.511.511 0 0 1-.727 0l-.485-.489a.525.525 0 0 1 0-.735.51.51 0 0 1 .727 0z"></path></svg><svg width="5" height="32" id="war-info" y="2816"><path fill-rule="evenodd" fill="#FFF" d="M2.452 23.67a2.037 2.037 0 0 1-2.036-2.036v-19a2.036 2.036 0 1 1 4.072 0v19a2.037 2.037 0 0 1-2.036 2.036zm0 3.393a2.036 2.036 0 1 1 0 4.071 2.036 2.036 0 0 1 0-4.071z"></path></svg><svg height="88" width="88" id="windows" y="2848"><path d="M0 12.402l35.687-4.86.016 34.423-35.67.203zm35.67 33.529l.028 34.453L.028 75.48.026 45.7zm4.326-39.025L87.314 0v41.527l-47.318.376zm47.33 39.349l-.012 41.34-47.318-6.678-.066-34.74z" fill="#fff"></path></svg></svg>