<svg xmlns="http://www.w3.org/2000/svg" width="44" height="44"><path fill-rule="evenodd" fill="#CEC0B5" d="M43.603 13.719A2.974 2.974 0 0140.721 16H3.119a2.975 2.975 0 01-2.882-2.281 3.013 3.013 0 011.5-3.374l18.801-10a2.94 2.94 0 012.765 0l18.801 10a3.01 3.01 0 011.499 3.374zM21.92 3L3.119 13h37.602L21.92 3zM3.119 21a1.493 1.493 0 01-1.484-1.5c0-.828.665-1.5 1.484-1.5h37.602c.82 0 1.485.672 1.485 1.5s-.665 1.5-1.485 1.5h-2.722v15h2.722c.82 0 1.485.672 1.485 1.5s-.665 1.5-1.485 1.5H3.119a1.493 1.493 0 01-1.484-1.5c0-.828.665-1.5 1.484-1.5h1.89V21h-1.89zm29.873 15h2.003V21h-2.003v15zm-5 0h2V21h-2v15zm-5 0h1.982V21h-1.982v15zm-5.03 0h2.03V21h-2.03v15zm-4.965 0h1.997V21h-1.997v15zm-5.005 0h2.01V21h-2.01v15zm-4.873 5h37.602c.82 0 1.485.672 1.485 1.5s-.665 1.5-1.485 1.5H3.119a1.493 1.493 0 01-1.484-1.5c0-.828.665-1.5 1.484-1.5z"/></svg>