<svg xmlns="http://www.w3.org/2000/svg" width="39" height="44"><path fill-rule="evenodd" fill="#CEC0B5" d="M38.121 7.979S21.776 24.898 20.728 25.16l-3 .75a2.996 2.996 0 01-2.849-.789 2.996 2.996 0 01-.789-2.849l.75-3c.252-1.008 16.917-17.657 16.917-17.657a2.992 2.992 0 012.122-.879c.767 0 1.535.294 2.121.879l2.121 2.122a2.996 2.996 0 010 4.242zm-4.242-4.242L19.797 17.818c.024.022.051.038.074.061l2.054 2.054L36 5.858l-2.121-2.121zM3 41h30V22h3v19a3 3 0 01-3 3H3a3 3 0 01-3-3V3a3 3 0 013-3h17v3H3v38z"/></svg>