<svg xmlns="http://www.w3.org/2000/svg" width="23" height="23"><path fill-rule="evenodd" fill="#262121" d="M21.5 13a1.5 1.5 0 11.001-3.001A1.5 1.5 0 0121.5 13zm0-10a1.5 1.5 0 11.001-3.001A1.5 1.5 0 0121.5 3zm-10 20a1.5 1.5 0 11.001-3.001A1.5 1.5 0 0111.5 23zm0-10a1.5 1.5 0 11.001-3.001A1.5 1.5 0 0111.5 13zm0-10a1.5 1.5 0 11.001-3.001A1.5 1.5 0 0111.5 3zm-10 20a1.5 1.5 0 11.001-3.001A1.5 1.5 0 011.5 23zm0-10a1.5 1.5 0 11.001-3.001A1.5 1.5 0 011.5 13zm0-10a1.5 1.5 0 11.001-3.001A1.5 1.5 0 011.5 3zm20 17a1.5 1.5 0 110 3 1.5 1.5 0 010-3z"/></svg>