<svg xmlns="http://www.w3.org/2000/svg" width="44" height="39"><path fill-rule="evenodd" fill="#CEC0B5" d="M41 20.065h-.01c-.745 4.814-2.989 16.477-2.989 16.477a3.007 3.007 0 01-2.958 2.446H8.957a3.007 3.007 0 01-2.958-2.446S3.754 24.018 3.01 20.065H3c-1.657 0-3-1.358-3-3.032v-3.827c0-1.796 1.343-3.169 3-3.169h1.899c.017-.02.023-.045.04-.064L14.847.445a1.489 1.489 0 012.121 0 1.527 1.527 0 010 2.144l-7.847 7.448h25.758l-7.847-7.448a1.527 1.527 0 010-2.144 1.489 1.489 0 012.121 0l9.908 9.528c.017.019.023.044.04.064H41c1.657 0 3 1.373 3 3.169v3.827c0 1.674-1.343 3.032-3 3.032zM8.957 35.99h26.086L38 19.992H6L8.957 35.99zM41 12.992H3v4.041h38v-4.041zM29.5 33.767c-.828 0-1.5-.679-1.5-1.516v-7.076c0-.837.672-1.515 1.5-1.515s1.5.678 1.5 1.515v7.076c0 .837-.672 1.516-1.5 1.516zm-5 0c-.828 0-1.5-.679-1.5-1.516v-7.076c0-.837.672-1.515 1.5-1.515s1.5.678 1.5 1.515v7.076c0 .837-.672 1.516-1.5 1.516zm-5 0c-.828 0-1.5-.679-1.5-1.516v-7.076c0-.837.672-1.515 1.5-1.515s1.5.678 1.5 1.515v7.076c0 .837-.672 1.516-1.5 1.516zm-5 0c-.828 0-1.5-.679-1.5-1.516v-7.076c0-.837.672-1.515 1.5-1.515s1.5.678 1.5 1.515v7.076c0 .837-.672 1.516-1.5 1.516z"/></svg>