<svg xmlns="http://www.w3.org/2000/svg" width="36" height="39"><path fill-rule="evenodd" fill="#CEC0B5" d="M18 37.488c-4.158 0-7.978-1.429-11.029-3.799l.514 3.588a1.497 1.497 0 01-1.487 1.707 1.499 1.499 0 01-1.483-1.285l-1-6.982a1.497 1.497 0 011.273-1.692l7-.997a1.497 1.497 0 11.424 2.962l-3.249.463A14.932 14.932 0 0018 34.496c8.284 0 15-6.699 15-14.962 0-1.115-.132-2.198-.364-3.243l2.431-2.424c.597 1.784.933 3.686.933 5.667 0 9.9-8.075 17.954-18 17.954zm12.212-27.444l-7 .997a1.5 1.5 0 01-1.697-1.269 1.497 1.497 0 011.273-1.693l4.089-.582A14.93 14.93 0 0018 4.573c-8.284 0-15 6.699-15 14.961 0 1.116.132 2.198.363 3.244l-2.43 2.424A17.819 17.819 0 010 19.534C0 9.635 8.075 1.581 18 1.581c3.662 0 7.067 1.105 9.912 2.986l-.397-2.775a1.5 1.5 0 012.97-.423l1 6.983a1.496 1.496 0 01-1.273 1.692z"/></svg>