<svg xmlns="http://www.w3.org/2000/svg" width="44" height="29"><path fill-rule="evenodd" fill="#CEC0B5" d="M44 18.813c0 5.607-4.486 10.169-10 10.169-5.176 0-9.497-3.858-10-8.99h-4c-.503 5.132-4.824 8.99-10 8.99-5.514 0-10-4.562-10-10.169v-2.812c0-.277 1.174-3.317.895-3.012l10-12.495a1.481 1.481 0 012.119-.093c.61.569.651 1.534.091 2.155L4.951 13.003h34.263L30.848 2.501A1.542 1.542 0 0131.04.353a1.482 1.482 0 012.112.196l10 12.493c-.299-.358.848 2.715.848 2.959v2.812zm-27-2.812H3v2.812c0 3.931 3.134 7.118 7 7.118s7-3.187 7-7.118v-2.812zm7 0h-4v1h4v-1zm17 0H27v2.812c0 3.931 3.134 7.118 7 7.118s7-3.187 7-7.118v-2.812zm-6.636 9.376a1.484 1.484 0 01-.365.046 1.506 1.506 0 01-1.454-1.155c-.2-.815.283-1.64 1.082-1.849.298-.08 2.873-.859 2.873-3.606 0-.843.672-1.526 1.5-1.526s1.5.683 1.5 1.526c0 4.159-3.359 6.112-5.136 6.564zm-24 0a1.484 1.484 0 01-.365.046 1.506 1.506 0 01-1.454-1.155c-.2-.815.283-1.64 1.082-1.849.298-.08 2.873-.859 2.873-3.606 0-.843.672-1.526 1.5-1.526s1.5.683 1.5 1.526c0 4.159-3.359 6.112-5.136 6.564z"/></svg>