<svg xmlns="http://www.w3.org/2000/svg" width="44" height="44"><path fill-rule="evenodd" fill="#CEC0B5" d="M22 0C9.869 0 0 9.869 0 22s9.869 22 22 22 22-9.869 22-22S34.131 0 22 0zm12.324 7.555l-4.914 4.913-.06.067A11.93 11.93 0 0022 10c-2.77 0-5.317.953-7.35 2.535l-.06-.067-4.914-4.913A18.912 18.912 0 0122 3c4.706 0 9.005 1.721 12.324 4.555zM22 31a9 9 0 01-9-9 9 9 0 019-9 9 9 0 019 9 9 9 0 01-9 9zM3 22c0-4.707 1.721-9.005 4.555-12.324l4.913 4.913c.022.022.045.04.067.061A11.93 11.93 0 0010 22c0 2.77.953 5.317 2.535 7.35l-.067.06-4.913 4.914A18.914 18.914 0 013 22zm6.676 14.445l4.914-4.913.06-.067A11.93 11.93 0 0022 34c2.77 0 5.317-.953 7.35-2.535l.06.067 4.914 4.913A18.914 18.914 0 0122 41a18.912 18.912 0 01-12.324-4.555zm26.769-2.121l-4.913-4.914-.067-.06A11.93 11.93 0 0034 22c0-2.77-.953-5.317-2.535-7.35.022-.021.045-.039.067-.061l4.913-4.913A18.912 18.912 0 0141 22c0 4.706-1.721 9.005-4.555 12.324z"/></svg>