<svg xmlns="http://www.w3.org/2000/svg" width="38" height="44"><path fill-rule="evenodd" fill="#CEC0B5" d="M36 42c-1.33 1.451-3.192 2-5.161 2H7.16c-1.969 0-3.83-.549-5.16-2-1.313-1.432-2.171-4.077-2-6 .398-4.49 2.521-18.474 11.207-23.892-.008-.019-.019-.036-.026-.055l-3.004-8A2.997 2.997 0 0110.99 0h16.022a2.997 2.997 0 012.812 4.053l-3.004 8c-.007.02-.018.037-.026.056C35.478 17.527 37.602 31.51 38 36c.17 1.923-.687 4.568-2 6zM27.012 3H10.99l3.004 8h10.013l3.005-8zm-3.006 11H13.994C6.937 17.236 3.739 28.667 3 37c-.206 2.317 1.83 4 4.16 4h23.679c2.33 0 4.366-1.683 4.161-4-.739-8.333-3.937-19.764-10.994-23zM19.92 36.968A1.498 1.498 0 0118.5 38c-.777 0-1.41-.592-1.487-1.348a5.1 5.1 0 01-3.117-5.228c.082-.825.806-1.443 1.644-1.343a1.498 1.498 0 011.344 1.642 2.117 2.117 0 001.663 2.282c.316-.009.632-.013.947-.012.37-.088.722-.269 1.01-.557a2.123 2.123 0 00-1.503-3.624 4.761 4.761 0 01-3.371-8.128c.401-.4.867-.706 1.366-.938l.002-1.258a1.502 1.502 0 013.004 0l.05.928a4.733 4.733 0 012.32 1.268 4.73 4.73 0 011.396 3.367 1.502 1.502 0 01-3.004 0c0-.471-.184-.912-.517-1.245-.666-.665-1.826-.665-2.493 0a1.76 1.76 0 001.247 3.005 5.1 5.1 0 013.627 1.502 5.122 5.122 0 010 7.245 5.1 5.1 0 01-2.708 1.41z"/></svg>