<svg xmlns="http://www.w3.org/2000/svg" width="44" height="44"><path fill-rule="evenodd" fill="#CEC0B5" d="M40.38 9.918A21.717 21.717 0 0144 21.934c0 12.088-9.869 21.922-22 21.922-3.703 0-7.187-.93-10.252-2.548a12.86 12.86 0 01-3.742.531c-1.593 0-2.327.606-2.518.797-.531.887-1.432 1.352-2.417 1.352-.276 0-.559-.037-.842-.111C.914 43.535.07 42.236.063 40.882c-.002-.234.02-4.678 2.405-8.893A21.687 21.687 0 010 21.934C0 9.847 9.869.013 22 .013c4.738 0 9.125 1.509 12.72 4.057l.311-.222C36.8 2.14 39.32 1.209 41.06 2.942c2.146 2.137 1.239 4.741.084 6.012l-.764.964zM22 40.866c10.493 0 19-8.476 19-18.932 0-3.48-.955-6.732-2.602-9.533-3.524 4.394-9.421 11.634-11.917 14.036-2.815 2.708-6.328 4.071-8.068 4.621.943 2.215.911 4.744-1.292 6.939a14.608 14.608 0 01-1.903 1.601A18.846 18.846 0 0022 40.866zM8.006 38.85c3.528 0 5.671-1.648 6.994-2.967 1.323-1.318 1.667-3.361-.979-5.998 0 0-1.091-1.049-2.815-1.049-1.161 0-2.609.475-4.206 2.066-3.969 3.955-3.937 9.964-3.937 9.964s1.415-2.016 4.943-2.016zM22 3.002c-10.493 0-19 8.476-19 18.932 0 2.587.535 5.044 1.48 7.289.133-.145.257-.293.399-.434 2.44-2.432 4.787-2.943 6.327-2.943.565 0 1.077.076 1.556.181.512-1.077 2.524-5.155 4.946-8.145 2.325-2.872 10.086-8.744 14.429-11.935A18.894 18.894 0 0022 3.002zm16.939 2.053c-.119-.117-.551.07-.791.197a5.51 5.51 0 00-1.087.8 1.433 1.433 0 01-.189.159c-.139.099-13.868 9.889-16.829 13.548-1.836 2.267-3.469 5.335-4.229 6.852l1.623 1.617c1.43-.449 4.557-1.63 6.961-3.942C27.844 20.969 38.711 7.2 38.82 7.061c.028-.034.057-.068.086-.1.412-.461.765-1.177.033-1.906zM17.121 15.08c-.139.138-.268.393-.432.716-.478.942-1.596 3.149-4.689 3.149-2.269 0-3.989-2.137-4-4.97-.012-2.941 2.938-5.452 4.207-6.394 1.247-.926 2.917-1.989 4.785-1.989 1.192 0 2.304.452 3.129 1.275.994.991 1.064 2.333 1.03 3.257-.059 1.593-.449 2.277-.823 2.735-.864 1.059-1.796 1.46-2.412 1.726-.382.164-.524.225-.795.495zM18 8.981a1.372 1.372 0 00-1.008-.4c-.95 0-2.101.734-2.992 1.396-1.411 1.049-3.005 2.715-3 3.986.004 1.022.492 1.993 1 1.993 1.964 0 1.688-1.683 3-2.99 1.312-1.308 2.174-.98 3-1.992.138-.17.269-1.725 0-1.993zm6.5 23.914c1.381 0 2.5 1.115 2.5 2.491a2.495 2.495 0 01-2.5 2.491 2.495 2.495 0 01-2.5-2.491 2.495 2.495 0 012.5-2.491zm8-4.982c1.381 0 2.5 1.115 2.5 2.491a2.495 2.495 0 01-2.5 2.491 2.495 2.495 0 01-2.5-2.491 2.495 2.495 0 012.5-2.491zm1.5-5.48a2.495 2.495 0 012.5-2.491c1.381 0 2.5 1.115 2.5 2.491a2.496 2.496 0 01-2.5 2.491 2.496 2.496 0 01-2.5-2.491z"/></svg>