<svg xmlns="http://www.w3.org/2000/svg" width="43" height="42"><path fill-rule="evenodd" fill="#CEC0B5" d="M20.945 3l5.938 13h12.865l-8.907 9 1.966 14-11.862-8.173L9.055 39l2.983-14-8.906-9h11.875l5.938-13m0-3c-1.158 0-2.21.68-2.696 1.743L13.107 13H3.132a2.968 2.968 0 00-2.743 1.852 3.022 3.022 0 00.643 3.269l7.764 7.845-2.643 12.403a3.014 3.014 0 001.244 3.119 2.945 2.945 0 003.328-.008l10.218-7.023 10.191 7.022a2.946 2.946 0 003.241.068 3.01 3.01 0 001.371-2.968l-1.757-12.517 7.858-7.941a3.024 3.024 0 00.644-3.269A2.97 2.97 0 0039.748 13H28.782L23.64 1.743A2.965 2.965 0 0020.945 0z"/></svg>