<svg xmlns="http://www.w3.org/2000/svg" width="38" height="40"><path fill-rule="evenodd" fill="#CEC0B5" d="M35 9c1.08-.347 1.25-1.551 1.25-2.165C36.25 4.519 34.562 2 30 2c-1.696 0-2.806-.333-6 2l1.221-1.596a1.532 1.532 0 00-.349-2.119 1.492 1.492 0 00-2.093.353L19 6 16.303.768a1.492 1.492 0 00-2.047-.566 1.529 1.529 0 00-.559 2.072l.68 1.205C12.716 2.629 10.257 2 8 2c-1.93 0-3.088.476-4.295 1.328-1.242.875-1.955 2.154-1.955 3.507C1.75 7.449 1.829 8.386 3 9c-1.27.353-3 1.501-3 2.833v3.87c0 1.677 1.343 3.309 3 3.309v17.946c0 1.677 1.343 3.037 3 3.037h26c1.657 0 3-1.36 3-3.037V19.012c1.657 0 3-1.632 3-3.309v-3.87c0-1.332-1.73-2.48-3-2.833zm-1.75-2.165C33.25 7.055 33.333 9 31 9H21c1.664-2.024 5.633-4 9-4 2.544 0 3.25 1.099 3.25 1.835zM3 12h14v4.016H3V12zm5-7c3.423 0 7.337 1.976 9 4H7C5.121 9 4.75 7.513 4.75 6.882 4.75 6.146 5.413 5 8 5zM6 19.012h11v17.946H6V19.012zm26 17.946H20V19.012h12v17.946zm3-20.942H20V12h15v4.016z"/></svg>